<mxfile host="app.diagrams.net" modified="2021-01-20T10:12:52.040Z" agent="5.0 (Windows NT 10.0; Win64; x64) AppleWebKit/537.36 (KHTML, like Gecko) Chrome/87.0.4280.141 Safari/537.36" etag="6TGaah_rx15670AArjks" version="14.2.4" type="github">
  <diagram id="IN2IzUdEQeQ1ij0o86GR" name="Page-1">
    <mxGraphModel dx="1422" dy="1943" grid="1" gridSize="10" guides="1" tooltips="1" connect="1" arrows="1" fold="1" page="1" pageScale="1" pageWidth="827" pageHeight="1169" math="0" shadow="0">
      <root>
        <mxCell id="0" />
        <mxCell id="1" parent="0" />
        <mxCell id="BjaZMy0gpQqecvI7dE5s-17" value="&lt;span style=&quot;font-size: 16px&quot;&gt;Balance Sheet Reconciliation&lt;/span&gt;" style="rounded=1;whiteSpace=wrap;html=1;verticalAlign=top;" vertex="1" parent="1">
          <mxGeometry x="850" y="-540" width="190" height="250" as="geometry" />
        </mxCell>
        <mxCell id="BjaZMy0gpQqecvI7dE5s-1" value="&lt;span style=&quot;font-size: 16px&quot;&gt;AR&lt;/span&gt;" style="rounded=1;whiteSpace=wrap;html=1;dashed=1;verticalAlign=top;" vertex="1" parent="1">
          <mxGeometry x="50" y="-940" width="510" height="370" as="geometry" />
        </mxCell>
        <mxCell id="BjaZMy0gpQqecvI7dE5s-2" value="&lt;span style=&quot;font-size: 16px&quot;&gt;Manage Customer Payments&lt;/span&gt;" style="rounded=1;whiteSpace=wrap;html=1;verticalAlign=top;" vertex="1" parent="1">
          <mxGeometry x="330" y="-910" width="190" height="315" as="geometry" />
        </mxCell>
        <mxCell id="BjaZMy0gpQqecvI7dE5s-3" value="&lt;span style=&quot;font-size: 16px&quot;&gt;AP&lt;/span&gt;" style="rounded=1;whiteSpace=wrap;html=1;dashed=1;verticalAlign=top;" vertex="1" parent="1">
          <mxGeometry x="580" y="-940" width="460" height="370" as="geometry" />
        </mxCell>
        <mxCell id="BjaZMy0gpQqecvI7dE5s-4" value="&lt;span style=&quot;font-size: 16px&quot;&gt;Core Finance&lt;/span&gt;" style="rounded=1;whiteSpace=wrap;html=1;dashed=1;verticalAlign=top;" vertex="1" parent="1">
          <mxGeometry x="50" y="-540" width="730" height="250" as="geometry" />
        </mxCell>
        <mxCell id="BjaZMy0gpQqecvI7dE5s-5" value="&lt;span style=&quot;font-size: 16px&quot;&gt;FA&lt;/span&gt;" style="rounded=1;whiteSpace=wrap;html=1;dashed=1;verticalAlign=top;" vertex="1" parent="1">
          <mxGeometry x="40" y="-220" width="400" height="210" as="geometry" />
        </mxCell>
        <mxCell id="BjaZMy0gpQqecvI7dE5s-6" value="&lt;span style=&quot;font-size: 16px&quot;&gt;Management Accounting&lt;/span&gt;" style="rounded=1;whiteSpace=wrap;html=1;dashed=1;verticalAlign=top;" vertex="1" parent="1">
          <mxGeometry x="590" y="-220" width="400" height="210" as="geometry" />
        </mxCell>
        <mxCell id="BjaZMy0gpQqecvI7dE5s-7" value="&lt;span style=&quot;font-size: 16px&quot;&gt;Manage Customer Customer Accounts&lt;/span&gt;" style="rounded=1;whiteSpace=wrap;html=1;verticalAlign=top;" vertex="1" parent="1">
          <mxGeometry x="60" y="-910" width="191.5" height="320" as="geometry" />
        </mxCell>
        <mxCell id="BjaZMy0gpQqecvI7dE5s-8" value="&lt;span style=&quot;font-size: 16px&quot;&gt;Reconcile Bank Statements&lt;/span&gt;" style="rounded=1;whiteSpace=wrap;html=1;verticalAlign=top;" vertex="1" parent="1">
          <mxGeometry x="884.25" y="-485" width="120" height="46" as="geometry" />
        </mxCell>
        <mxCell id="BjaZMy0gpQqecvI7dE5s-9" value="&lt;span style=&quot;font-size: 16px&quot;&gt;Match Payments&lt;br&gt;(Cash)&amp;nbsp;&lt;/span&gt;" style="rounded=1;whiteSpace=wrap;html=1;verticalAlign=top;" vertex="1" parent="1">
          <mxGeometry x="360" y="-850" width="130" height="50" as="geometry" />
        </mxCell>
        <mxCell id="BjaZMy0gpQqecvI7dE5s-10" value="&lt;span style=&quot;font-size: 16px&quot;&gt;Match Payments&lt;br&gt;(BACS)&amp;nbsp;&lt;/span&gt;" style="rounded=1;whiteSpace=wrap;html=1;verticalAlign=top;" vertex="1" parent="1">
          <mxGeometry x="360" y="-790" width="130" height="50" as="geometry" />
        </mxCell>
        <mxCell id="BjaZMy0gpQqecvI7dE5s-11" value="&lt;span style=&quot;font-size: 16px&quot;&gt;Match Payments&lt;br&gt;(Card)&amp;nbsp;&lt;/span&gt;" style="rounded=1;whiteSpace=wrap;html=1;verticalAlign=top;" vertex="1" parent="1">
          <mxGeometry x="360" y="-727" width="130" height="50" as="geometry" />
        </mxCell>
        <mxCell id="BjaZMy0gpQqecvI7dE5s-12" value="&lt;span style=&quot;font-size: 16px&quot;&gt;Manage Credit Limits&lt;/span&gt;" style="rounded=1;whiteSpace=wrap;html=1;verticalAlign=top;" vertex="1" parent="1">
          <mxGeometry x="90.75" y="-850" width="130" height="50" as="geometry" />
        </mxCell>
        <mxCell id="BjaZMy0gpQqecvI7dE5s-13" value="&lt;span style=&quot;font-size: 16px&quot;&gt;Chase Debt&lt;/span&gt;" style="rounded=1;whiteSpace=wrap;html=1;verticalAlign=top;" vertex="1" parent="1">
          <mxGeometry x="90" y="-790" width="130" height="50" as="geometry" />
        </mxCell>
        <mxCell id="BjaZMy0gpQqecvI7dE5s-14" value="&lt;span style=&quot;font-size: 16px&quot;&gt;Manage Invoicing&lt;/span&gt;" style="rounded=1;whiteSpace=wrap;html=1;verticalAlign=top;" vertex="1" parent="1">
          <mxGeometry x="90.75" y="-730" width="130" height="50" as="geometry" />
        </mxCell>
        <mxCell id="BjaZMy0gpQqecvI7dE5s-15" value="&lt;span style=&quot;font-size: 16px&quot;&gt;Issue Statements&lt;/span&gt;" style="rounded=1;whiteSpace=wrap;html=1;verticalAlign=top;" vertex="1" parent="1">
          <mxGeometry x="90" y="-660" width="130" height="50" as="geometry" />
        </mxCell>
        <mxCell id="BjaZMy0gpQqecvI7dE5s-19" value="&lt;span style=&quot;font-size: 16px&quot;&gt;Manage Supplier Payments&lt;/span&gt;" style="rounded=1;whiteSpace=wrap;html=1;verticalAlign=top;" vertex="1" parent="1">
          <mxGeometry x="600" y="-907.5" width="190" height="315" as="geometry" />
        </mxCell>
        <mxCell id="BjaZMy0gpQqecvI7dE5s-20" value="&lt;span style=&quot;font-size: 16px&quot;&gt;Invoice Processing&lt;/span&gt;" style="rounded=1;whiteSpace=wrap;html=1;verticalAlign=top;" vertex="1" parent="1">
          <mxGeometry x="630" y="-850" width="130" height="50" as="geometry" />
        </mxCell>
        <mxCell id="BjaZMy0gpQqecvI7dE5s-21" value="&lt;span style=&quot;font-size: 16px&quot;&gt;Invoice Matching &amp;amp; Approval&lt;/span&gt;" style="rounded=1;whiteSpace=wrap;html=1;verticalAlign=top;" vertex="1" parent="1">
          <mxGeometry x="630" y="-760" width="130" height="50" as="geometry" />
        </mxCell>
        <mxCell id="BjaZMy0gpQqecvI7dE5s-22" value="&lt;span style=&quot;font-size: 16px&quot;&gt;Payment Processing&lt;/span&gt;" style="rounded=1;whiteSpace=wrap;html=1;verticalAlign=top;" vertex="1" parent="1">
          <mxGeometry x="630" y="-660" width="130" height="50" as="geometry" />
        </mxCell>
        <mxCell id="BjaZMy0gpQqecvI7dE5s-23" value="&lt;span style=&quot;font-size: 16px&quot;&gt;Manage Supplier&lt;br&gt;Accounts&lt;/span&gt;" style="rounded=1;whiteSpace=wrap;html=1;verticalAlign=top;" vertex="1" parent="1">
          <mxGeometry x="818.5" y="-907.5" width="191.5" height="320" as="geometry" />
        </mxCell>
        <mxCell id="BjaZMy0gpQqecvI7dE5s-24" value="&lt;span style=&quot;font-size: 16px&quot;&gt;Issue Statements&lt;/span&gt;" style="rounded=1;whiteSpace=wrap;html=1;verticalAlign=top;" vertex="1" parent="1">
          <mxGeometry x="849.25" y="-730" width="130" height="50" as="geometry" />
        </mxCell>
        <mxCell id="BjaZMy0gpQqecvI7dE5s-25" value="&lt;span style=&quot;font-size: 16px&quot;&gt;Manage Payment Terms&lt;/span&gt;" style="rounded=1;whiteSpace=wrap;html=1;verticalAlign=top;" vertex="1" parent="1">
          <mxGeometry x="849.25" y="-810" width="130" height="50" as="geometry" />
        </mxCell>
        <mxCell id="BjaZMy0gpQqecvI7dE5s-26" value="&lt;span style=&quot;font-size: 16px&quot;&gt;Reconcile Fixed Assets&lt;/span&gt;" style="rounded=1;whiteSpace=wrap;html=1;verticalAlign=top;" vertex="1" parent="1">
          <mxGeometry x="884.25" y="-425" width="120" height="46" as="geometry" />
        </mxCell>
        <mxCell id="BjaZMy0gpQqecvI7dE5s-27" value="&lt;span style=&quot;font-size: 16px&quot;&gt;Lots of Others&lt;/span&gt;" style="rounded=1;whiteSpace=wrap;html=1;verticalAlign=top;" vertex="1" parent="1">
          <mxGeometry x="884.25" y="-365" width="120" height="46" as="geometry" />
        </mxCell>
        <mxCell id="BjaZMy0gpQqecvI7dE5s-28" value="&lt;span style=&quot;font-size: 16px&quot;&gt;General :Ledger&lt;/span&gt;" style="rounded=1;whiteSpace=wrap;html=1;verticalAlign=top;" vertex="1" parent="1">
          <mxGeometry x="540" y="-490" width="180" height="160" as="geometry" />
        </mxCell>
        <mxCell id="BjaZMy0gpQqecvI7dE5s-29" value="&lt;span style=&quot;font-size: 16px&quot;&gt;Balance Sheet&lt;/span&gt;" style="rounded=1;whiteSpace=wrap;html=1;verticalAlign=top;" vertex="1" parent="1">
          <mxGeometry x="570" y="-455" width="120" height="46" as="geometry" />
        </mxCell>
        <mxCell id="BjaZMy0gpQqecvI7dE5s-30" value="&lt;span style=&quot;font-size: 16px&quot;&gt;P&amp;amp;L&lt;/span&gt;" style="rounded=1;whiteSpace=wrap;html=1;verticalAlign=top;" vertex="1" parent="1">
          <mxGeometry x="570" y="-390" width="120" height="46" as="geometry" />
        </mxCell>
        <mxCell id="BjaZMy0gpQqecvI7dE5s-31" value="&lt;span style=&quot;font-size: 16px&quot;&gt;Produce Financial Statements&lt;/span&gt;" style="rounded=1;whiteSpace=wrap;html=1;verticalAlign=top;" vertex="1" parent="1">
          <mxGeometry x="90" y="-507" width="180" height="80" as="geometry" />
        </mxCell>
        <mxCell id="BjaZMy0gpQqecvI7dE5s-34" value="&lt;span style=&quot;font-size: 16px&quot;&gt;Manage Refunds&lt;/span&gt;" style="rounded=1;whiteSpace=wrap;html=1;verticalAlign=top;" vertex="1" parent="1">
          <mxGeometry x="360" y="-660" width="130" height="50" as="geometry" />
        </mxCell>
        <mxCell id="BjaZMy0gpQqecvI7dE5s-35" value="&lt;span style=&quot;font-size: 16px&quot;&gt;Group Reporting&lt;/span&gt;" style="rounded=1;whiteSpace=wrap;html=1;verticalAlign=top;" vertex="1" parent="1">
          <mxGeometry x="90" y="-404" width="180" height="80" as="geometry" />
        </mxCell>
        <mxCell id="BjaZMy0gpQqecvI7dE5s-36" value="&lt;span style=&quot;font-size: 16px&quot;&gt;Local Consolidation&lt;/span&gt;" style="rounded=1;whiteSpace=wrap;html=1;verticalAlign=top;" vertex="1" parent="1">
          <mxGeometry x="320" y="-455" width="180" height="80" as="geometry" />
        </mxCell>
        <mxCell id="BjaZMy0gpQqecvI7dE5s-37" value="&lt;span style=&quot;font-size: 16px&quot;&gt;Manage Depreciation&lt;/span&gt;" style="rounded=1;whiteSpace=wrap;html=1;verticalAlign=top;" vertex="1" parent="1">
          <mxGeometry x="170" y="-160" width="120" height="46" as="geometry" />
        </mxCell>
        <mxCell id="BjaZMy0gpQqecvI7dE5s-38" value="&lt;span style=&quot;font-size: 16px&quot;&gt;Cost Accounting&lt;/span&gt;" style="rounded=1;whiteSpace=wrap;html=1;verticalAlign=top;" vertex="1" parent="1">
          <mxGeometry x="635" y="-160" width="120" height="46" as="geometry" />
        </mxCell>
        <mxCell id="BjaZMy0gpQqecvI7dE5s-39" value="&lt;span style=&quot;font-size: 16px&quot;&gt;Sales Reporting&amp;nbsp;&lt;/span&gt;" style="rounded=1;whiteSpace=wrap;html=1;verticalAlign=top;" vertex="1" parent="1">
          <mxGeometry x="827" y="-160" width="120" height="46" as="geometry" />
        </mxCell>
      </root>
    </mxGraphModel>
  </diagram>
</mxfile>
